# xmcd
#
# Track frame offsets:
#	150
#	10944
#	25323
#	38020
#	51542
#	67799
#	84975
#	95520
#	115249
#	130565
#	144253
#	159447
#
# Disc length: 2295 seconds
# Revision: 0
# Processed by: cddbd v1.5.2PL0 Copyright (c) Steve Scherf et al.
# Submitted via: dBpowerAMP V12.0
#
DISCID=8e08f50c
DTITLE=Wesley Dennis - A Little Bit Of Love
DYEAR=1998
DGENRE=Country
TTITLE0=Dear Huntin'
TTITLE1=Dead End Dirt Road
TTITLE2=How Do I Talk To An Angel
TTITLE3=Short End Of The Deal
TTITLE4=Don't Throw Pennies Away
TTITLE5=That's All I Know
TTITLE6=A Little Bit Of Love
TTITLE7=Civil War
TTITLE8=Steal Your Heart Away
TTITLE9=All Right
TTITLE10=My Love
TTITLE11=I Remember
EXTD=
EXTT0=
EXTT1=
EXTT2=
EXTT3=
EXTT4=
EXTT5=
EXTT6=
EXTT7=
EXTT8=
EXTT9=
EXTT10=
EXTT11=
PLAYORDER=
